<svg viewBox="-16 -32 880 192" width="880" height="192" xmlns="http://www.w3.org/2000/svg"><desc>Generated with https://github.com/Platane/snk</desc><style>:root{--cb:#1b1f230a;--cs:purple;--ce:#ebedf0;--c0:#ebedf0;--c1:#9be9a8;--c2:#40c463;--c3:#30a14e;--c4:#216e39}.c{shape-rendering:geometricPrecision;fill:var(--ce);stroke-width:1px;stroke:var(--cb);animation:none 30700ms linear infinite;width:12px;height:12px}@keyframes c0{7.48%{fill:var(--c1)}7.5%,100%{fill:var(--ce)}}.c.c0{fill:var(--c1);animation-name:c0}@keyframes c1{7.81%{fill:var(--c1)}7.83%,100%{fill:var(--ce)}}.c.c1{fill:var(--c1);animation-name:c1}@keyframes c2{8.13%{fill:var(--c1)}8.15%,100%{fill:var(--ce)}}.c.c2{fill:var(--c1);animation-name:c2}@keyframes c3{8.46%{fill:var(--c1)}8.48%,100%{fill:var(--ce)}}.c.c3{fill:var(--c1);animation-name:c3}@keyframes c4{10.09%{fill:var(--c1)}10.11%,100%{fill:var(--ce)}}.c.c4{fill:var(--c1);animation-name:c4}@keyframes c5{10.41%{fill:var(--c1)}10.43%,100%{fill:var(--ce)}}.c.c5{fill:var(--c1);animation-name:c5}@keyframes c6{9.44%{fill:var(--c1)}9.46%,100%{fill:var(--ce)}}.c.c6{fill:var(--c1);animation-name:c6}@keyframes c7{10.74%{fill:var(--c1)}10.76%,100%{fill:var(--ce)}}.c.c7{fill:var(--c1);animation-name:c7}@keyframes c8{17.58%{fill:var(--c1)}17.6%,100%{fill:var(--ce)}}.c.c8{fill:var(--c1);animation-name:c8}@keyframes c9{16.93%{fill:var(--c1)}16.95%,100%{fill:var(--ce)}}.c.c9{fill:var(--c1);animation-name:c9}@keyframes ca{16.6%{fill:var(--c1)}16.62%,100%{fill:var(--ce)}}.c.ca{fill:var(--c1);animation-name:ca}@keyframes cb{19.53%{fill:var(--c1)}19.55%,100%{fill:var(--ce)}}.c.cb{fill:var(--c1);animation-name:cb}@keyframes cc{65.46%{fill:var(--c2)}65.48%,100%{fill:var(--ce)}}.c.cc{fill:var(--c2);animation-name:cc}@keyframes cd{12.04%{fill:var(--c1)}12.06%,100%{fill:var(--ce)}}.c.cd{fill:var(--c1);animation-name:cd}@keyframes ce{15.95%{fill:var(--c1)}15.97%,100%{fill:var(--ce)}}.c.ce{fill:var(--c1);animation-name:ce}@keyframes cf{15.63%{fill:var(--c1)}15.65%,100%{fill:var(--ce)}}.c.cf{fill:var(--c1);animation-name:cf}@keyframes cg{13.02%{fill:var(--c1)}13.04%,100%{fill:var(--ce)}}.c.cg{fill:var(--c1);animation-name:cg}@keyframes ch{14%{fill:var(--c1)}14.02%,100%{fill:var(--ce)}}.c.ch{fill:var(--c1);animation-name:ch}@keyframes ci{25.4%{fill:var(--c1)}25.42%,100%{fill:var(--ce)}}.c.ci{fill:var(--c1);animation-name:ci}@keyframes cj{52.43%{fill:var(--c2)}52.45%,100%{fill:var(--ce)}}.c.cj{fill:var(--c2);animation-name:cj}@keyframes ck{24.75%{fill:var(--c1)}24.77%,100%{fill:var(--ce)}}.c.ck{fill:var(--c1);animation-name:ck}@keyframes cl{24.42%{fill:var(--c1)}24.44%,100%{fill:var(--ce)}}.c.cl{fill:var(--c1);animation-name:cl}@keyframes cm{33.21%{fill:var(--c1)}33.23%,100%{fill:var(--ce)}}.c.cm{fill:var(--c1);animation-name:cm}@keyframes cn{32.89%{fill:var(--c1)}32.91%,100%{fill:var(--ce)}}.c.cn{fill:var(--c1);animation-name:cn}@keyframes co{26.7%{fill:var(--c1)}26.72%,100%{fill:var(--ce)}}.c.co{fill:var(--c1);animation-name:co}@keyframes cp{32.24%{fill:var(--c1)}32.26%,100%{fill:var(--ce)}}.c.cp{fill:var(--c1);animation-name:cp}@keyframes cq{50.15%{fill:var(--c2)}50.17%,100%{fill:var(--ce)}}.c.cq{fill:var(--c2);animation-name:cq}@keyframes cr{31.91%{fill:var(--c1)}31.93%,100%{fill:var(--ce)}}.c.cr{fill:var(--c1);animation-name:cr}@keyframes cs{29.96%{fill:var(--c1)}29.98%,100%{fill:var(--ce)}}.c.cs{fill:var(--c1);animation-name:cs}@keyframes ct{30.28%{fill:var(--c1)}30.3%,100%{fill:var(--ce)}}.c.ct{fill:var(--c1);animation-name:ct}@keyframes cu{48.52%{fill:var(--c2)}48.54%,100%{fill:var(--ce)}}.c.cu{fill:var(--c2);animation-name:cu}@keyframes cv{35.17%{fill:var(--c1)}35.19%,100%{fill:var(--ce)}}.c.cv{fill:var(--c1);animation-name:cv}@keyframes cw{37.45%{fill:var(--c1)}37.47%,100%{fill:var(--ce)}}.c.cw{fill:var(--c1);animation-name:cw}@keyframes cx{28%{fill:var(--c1)}28.02%,100%{fill:var(--ce)}}.c.cx{fill:var(--c1);animation-name:cx}@keyframes cy{77.84%{fill:var(--c3)}77.86%,100%{fill:var(--ce)}}.c.cy{fill:var(--c3);animation-name:cy}@keyframes cz{78.82%{fill:var(--c4)}78.84%,100%{fill:var(--ce)}}.c.cz{fill:var(--c4);animation-name:cz}@keyframes c10{72.63%{fill:var(--c1)}72.65%,100%{fill:var(--ce)}}.c.c10{fill:var(--c1);animation-name:c10}@keyframes c11{79.47%{fill:var(--c4)}79.49%,100%{fill:var(--ce)}}.c.c11{fill:var(--c4);animation-name:c11}@keyframes c12{35.49%{fill:var(--c1)}35.51%,100%{fill:var(--ce)}}.c.c12{fill:var(--c1);animation-name:c12}@keyframes c13{47.55%{fill:var(--c2)}47.57%,100%{fill:var(--ce)}}.c.c13{fill:var(--c2);animation-name:c13}@keyframes c14{28.33%{fill:var(--c1)}28.35%,100%{fill:var(--ce)}}.c.c14{fill:var(--c1);animation-name:c14}@keyframes c15{78.17%{fill:var(--c4)}78.19%,100%{fill:var(--ce)}}.c.c15{fill:var(--c4);animation-name:c15}@keyframes c16{73.28%{fill:var(--c2)}73.3%,100%{fill:var(--ce)}}.c.c16{fill:var(--c2);animation-name:c16}@keyframes c17{72.95%{fill:var(--c3)}72.97%,100%{fill:var(--ce)}}.c.c17{fill:var(--c3);animation-name:c17}@keyframes c18{75.23%{fill:var(--c3)}75.25%,100%{fill:var(--ce)}}.c.c18{fill:var(--c3);animation-name:c18}@keyframes c19{35.82%{fill:var(--c1)}35.84%,100%{fill:var(--ce)}}.c.c19{fill:var(--c1);animation-name:c19}@keyframes c1a{36.15%{fill:var(--c1)}36.17%,100%{fill:var(--ce)}}.c.c1a{fill:var(--c1);animation-name:c1a}@keyframes c1b{55.36%{fill:var(--c2)}55.38%,100%{fill:var(--ce)}}.c.c1b{fill:var(--c2);animation-name:c1b}@keyframes c1c{42.66%{fill:var(--c1)}42.68%,100%{fill:var(--ce)}}.c.c1c{fill:var(--c1);animation-name:c1c}@keyframes c1d{42.99%{fill:var(--c1)}43.01%,100%{fill:var(--ce)}}.c.c1d{fill:var(--c1);animation-name:c1d}@keyframes c1e{44.62%{fill:var(--c2)}44.64%,100%{fill:var(--ce)}}.c.c1e{fill:var(--c2);animation-name:c1e}@keyframes c1f{44.94%{fill:var(--c1)}44.96%,100%{fill:var(--ce)}}.c.c1f{fill:var(--c1);animation-name:c1f}@keyframes c1g{45.27%{fill:var(--c2)}45.29%,100%{fill:var(--ce)}}.c.c1g{fill:var(--c2);animation-name:c1g}@keyframes c1h{45.59%{fill:var(--c2)}45.61%,100%{fill:var(--ce)}}.c.c1h{fill:var(--c2);animation-name:c1h}@keyframes c1i{55.69%{fill:var(--c2)}55.71%,100%{fill:var(--ce)}}.c.c1i{fill:var(--c2);animation-name:c1i}@keyframes c1j{43.31%{fill:var(--c2)}43.33%,100%{fill:var(--ce)}}.c.c1j{fill:var(--c2);animation-name:c1j}@keyframes c1k{74.26%{fill:var(--c3)}74.28%,100%{fill:var(--ce)}}.c.c1k{fill:var(--c3);animation-name:c1k}@keyframes c1l{80.45%{fill:var(--c4)}80.47%,100%{fill:var(--ce)}}.c.c1l{fill:var(--c4);animation-name:c1l}@keyframes c1m{80.77%{fill:var(--c4)}80.79%,100%{fill:var(--ce)}}.c.c1m{fill:var(--c4);animation-name:c1m}@keyframes c1n{45.92%{fill:var(--c2)}45.94%,100%{fill:var(--ce)}}.c.c1n{fill:var(--c2);animation-name:c1n}.u{transform-origin:0 0;transform:scale(0,1);animation:none linear 30700ms infinite}@keyframes u0{7.48%{transform:scale(0.000,1)}7.5%,7.81%{transform:scale(0.028,1)}7.83%,8.13%{transform:scale(0.056,1)}8.15%,8.46%{transform:scale(0.083,1)}8.48%,9.44%{transform:scale(0.111,1)}9.46%,10.09%{transform:scale(0.139,1)}10.11%,10.41%{transform:scale(0.167,1)}10.43%,10.74%{transform:scale(0.194,1)}10.76%,12.04%{transform:scale(0.222,1)}12.06%,13.02%{transform:scale(0.250,1)}13.04%,14%{transform:scale(0.278,1)}14.02%,15.63%{transform:scale(0.306,1)}15.65%,15.95%{transform:scale(0.333,1)}15.97%,16.6%{transform:scale(0.361,1)}16.62%,16.93%{transform:scale(0.389,1)}16.95%,17.58%{transform:scale(0.417,1)}17.6%,19.53%{transform:scale(0.444,1)}19.55%,24.42%{transform:scale(0.472,1)}24.44%,24.75%{transform:scale(0.500,1)}24.77%,25.4%{transform:scale(0.528,1)}25.42%,26.7%{transform:scale(0.556,1)}26.72%,28%{transform:scale(0.583,1)}28.02%,28.33%{transform:scale(0.611,1)}28.35%,29.96%{transform:scale(0.639,1)}29.98%,30.28%{transform:scale(0.667,1)}30.3%,31.91%{transform:scale(0.694,1)}31.93%,32.24%{transform:scale(0.722,1)}32.26%,32.89%{transform:scale(0.750,1)}32.91%,33.21%{transform:scale(0.778,1)}33.23%,35.17%{transform:scale(0.806,1)}35.19%,35.49%{transform:scale(0.833,1)}35.51%,35.82%{transform:scale(0.861,1)}35.84%,36.15%{transform:scale(0.889,1)}36.17%,37.45%{transform:scale(0.917,1)}37.47%,42.66%{transform:scale(0.944,1)}42.68%,42.99%{transform:scale(0.972,1)}43.01%,100%{transform:scale(1.000,1)}}.u.u0{fill:var(--c1);animation-name:u0;transform-origin:0.0px 0}@keyframes u1{43.31%{transform:scale(0.000,1)}43.33%,44.62%{transform:scale(0.500,1)}44.64%,100%{transform:scale(1.000,1)}}.u.u1{fill:var(--c2);animation-name:u1;transform-origin:508.8px 0}@keyframes u2{44.94%{transform:scale(0.000,1)}44.96%,100%{transform:scale(1.000,1)}}.u.u2{fill:var(--c1);animation-name:u2;transform-origin:537.1px 0}@keyframes u3{45.27%{transform:scale(0.000,1)}45.29%,45.59%{transform:scale(0.100,1)}45.61%,45.92%{transform:scale(0.200,1)}45.94%,47.55%{transform:scale(0.300,1)}47.57%,48.52%{transform:scale(0.400,1)}48.54%,50.15%{transform:scale(0.500,1)}50.17%,52.43%{transform:scale(0.600,1)}52.45%,55.36%{transform:scale(0.700,1)}55.38%,55.69%{transform:scale(0.800,1)}55.71%,65.46%{transform:scale(0.900,1)}65.48%,100%{transform:scale(1.000,1)}}.u.u3{fill:var(--c2);animation-name:u3;transform-origin:551.2px 0}@keyframes u4{72.63%{transform:scale(0.000,1)}72.65%,100%{transform:scale(1.000,1)}}.u.u4{fill:var(--c1);animation-name:u4;transform-origin:692.5px 0}@keyframes u5{72.95%{transform:scale(0.000,1)}72.97%,100%{transform:scale(1.000,1)}}.u.u5{fill:var(--c3);animation-name:u5;transform-origin:706.7px 0}@keyframes u6{73.28%{transform:scale(0.000,1)}73.3%,100%{transform:scale(1.000,1)}}.u.u6{fill:var(--c2);animation-name:u6;transform-origin:720.8px 0}@keyframes u7{74.26%{transform:scale(0.000,1)}74.28%,75.23%{transform:scale(0.333,1)}75.25%,77.84%{transform:scale(0.667,1)}77.86%,100%{transform:scale(1.000,1)}}.u.u7{fill:var(--c3);animation-name:u7;transform-origin:734.9px 0}@keyframes u8{78.17%{transform:scale(0.000,1)}78.19%,78.82%{transform:scale(0.200,1)}78.84%,79.47%{transform:scale(0.400,1)}79.49%,80.45%{transform:scale(0.600,1)}80.47%,80.77%{transform:scale(0.800,1)}80.79%,100%{transform:scale(1.000,1)}}.u.u8{fill:var(--c4);animation-name:u8;transform-origin:777.3px 0}.s{shape-rendering:geometricPrecision;fill:var(--cs);animation:none linear 30700ms infinite}@keyframes s0{0%,99.67%{transform:translate(0px,-16px)}0.33%{transform:translate(0px,0px)}7.82%{transform:translate(368px,0px)}8.47%{transform:translate(368px,32px)}8.79%{transform:translate(384px,32px)}9.45%{transform:translate(384px,64px)}9.77%{transform:translate(368px,64px)}10.42%{transform:translate(368px,96px)}13.36%{transform:translate(512px,96px)}14.66%{transform:translate(512px,32px)}15.64%{transform:translate(464px,32px)}15.96%{transform:translate(464px,16px)}16.94%{transform:translate(416px,16px)}17.26%{transform:translate(416px,0px)}17.59%{transform:translate(400px,0px)}17.92%{transform:translate(400px,16px)}18.89%{transform:translate(448px,16px)}19.54%{transform:translate(448px,48px)}24.43%{transform:translate(688px,48px)}24.76%{transform:translate(688px,32px)}25.08%{transform:translate(672px,32px)}25.73%{transform:translate(672px,0px)}28.34%{transform:translate(800px,0px)}28.66%{transform:translate(800px,-16px)}29.32%{transform:translate(768px,-16px)}30.29%{transform:translate(768px,32px)}30.94%{transform:translate(736px,32px)}31.92%{transform:translate(736px,80px)}32.9%{transform:translate(688px,80px)}33.22%{transform:translate(688px,64px)}34.53%{transform:translate(752px,64px)}34.85%{transform:translate(752px,80px)}35.83%,38.44%{transform:translate(800px,80px)}36.48%,39.09%{transform:translate(800px,112px)}37.13%{transform:translate(768px,112px)}37.79%,48.21%{transform:translate(768px,80px)}40.07%{transform:translate(848px,112px)}42.02%{transform:translate(848px,16px)}42.67%,43.97%{transform:translate(816px,16px)}43%{transform:translate(816px,32px)}43.32%,73.94%{transform:translate(832px,32px)}43.65%{transform:translate(832px,16px)}45.6%,46.91%{transform:translate(816px,96px)}45.93%{transform:translate(832px,96px)}46.25%{transform:translate(832px,112px)}46.58%{transform:translate(816px,112px)}47.56%{transform:translate(784px,96px)}47.88%{transform:translate(784px,80px)}48.53%{transform:translate(768px,64px)}49.51%{transform:translate(720px,64px)}50.16%{transform:translate(720px,96px)}50.49%{transform:translate(704px,96px)}52.12%{transform:translate(704px,16px)}52.44%{transform:translate(688px,16px)}52.77%{transform:translate(688px,0px)}55.7%{transform:translate(832px,0px)}56.03%{transform:translate(832px,-16px)}63.84%{transform:translate(448px,-16px)}65.47%{transform:translate(448px,64px)}65.8%{transform:translate(464px,64px)}66.12%{transform:translate(464px,48px)}72.96%,74.92%{transform:translate(800px,48px)}73.29%,78.5%{transform:translate(800px,32px)}74.27%{transform:translate(832px,48px)}75.24%{transform:translate(800px,64px)}75.57%{transform:translate(816px,64px)}76.87%{transform:translate(816px,0px)}77.52%{transform:translate(784px,0px)}77.85%{transform:translate(784px,16px)}78.18%{transform:translate(800px,16px)}78.83%{transform:translate(784px,32px)}79.48%{transform:translate(784px,64px)}80.46%{transform:translate(832px,64px)}80.78%{transform:translate(832px,80px)}93.81%{transform:translate(192px,80px)}94.46%{transform:translate(192px,48px)}96.42%{transform:translate(96px,48px)}97.72%{transform:translate(96px,-16px)}}.s.s0{transform:translate(0px,-16px);animation-name:s0}@keyframes s1{0%,99.67%{transform:translate(16px,-16px)}0.33%{transform:translate(0px,-16px)}0.65%{transform:translate(0px,0px)}8.14%{transform:translate(368px,0px)}8.79%{transform:translate(368px,32px)}9.12%{transform:translate(384px,32px)}9.77%{transform:translate(384px,64px)}10.1%{transform:translate(368px,64px)}10.75%{transform:translate(368px,96px)}13.68%{transform:translate(512px,96px)}14.98%{transform:translate(512px,32px)}15.96%{transform:translate(464px,32px)}16.29%{transform:translate(464px,16px)}17.26%{transform:translate(416px,16px)}17.59%{transform:translate(416px,0px)}17.92%{transform:translate(400px,0px)}18.24%{transform:translate(400px,16px)}19.22%{transform:translate(448px,16px)}19.87%{transform:translate(448px,48px)}24.76%{transform:translate(688px,48px)}25.08%{transform:translate(688px,32px)}25.41%{transform:translate(672px,32px)}26.06%{transform:translate(672px,0px)}28.66%{transform:translate(800px,0px)}28.99%{transform:translate(800px,-16px)}29.64%{transform:translate(768px,-16px)}30.62%{transform:translate(768px,32px)}31.27%{transform:translate(736px,32px)}32.25%{transform:translate(736px,80px)}33.22%{transform:translate(688px,80px)}33.55%{transform:translate(688px,64px)}34.85%{transform:translate(752px,64px)}35.18%{transform:translate(752px,80px)}36.16%,38.76%{transform:translate(800px,80px)}36.81%,39.41%{transform:translate(800px,112px)}37.46%{transform:translate(768px,112px)}38.11%,48.53%{transform:translate(768px,80px)}40.39%{transform:translate(848px,112px)}42.35%{transform:translate(848px,16px)}43%,44.3%{transform:translate(816px,16px)}43.32%{transform:translate(816px,32px)}43.65%,74.27%{transform:translate(832px,32px)}43.97%{transform:translate(832px,16px)}45.93%,47.23%{transform:translate(816px,96px)}46.25%{transform:translate(832px,96px)}46.58%{transform:translate(832px,112px)}46.91%{transform:translate(816px,112px)}47.88%{transform:translate(784px,96px)}48.21%{transform:translate(784px,80px)}48.86%{transform:translate(768px,64px)}49.84%{transform:translate(720px,64px)}50.49%{transform:translate(720px,96px)}50.81%{transform:translate(704px,96px)}52.44%{transform:translate(704px,16px)}52.77%{transform:translate(688px,16px)}53.09%{transform:translate(688px,0px)}56.03%{transform:translate(832px,0px)}56.35%{transform:translate(832px,-16px)}64.17%{transform:translate(448px,-16px)}65.8%{transform:translate(448px,64px)}66.12%{transform:translate(464px,64px)}66.45%{transform:translate(464px,48px)}73.29%,75.24%{transform:translate(800px,48px)}73.62%,78.83%{transform:translate(800px,32px)}74.59%{transform:translate(832px,48px)}75.57%{transform:translate(800px,64px)}75.9%{transform:translate(816px,64px)}77.2%{transform:translate(816px,0px)}77.85%{transform:translate(784px,0px)}78.18%{transform:translate(784px,16px)}78.5%{transform:translate(800px,16px)}79.15%{transform:translate(784px,32px)}79.8%{transform:translate(784px,64px)}80.78%{transform:translate(832px,64px)}81.11%{transform:translate(832px,80px)}94.14%{transform:translate(192px,80px)}94.79%{transform:translate(192px,48px)}96.74%{transform:translate(96px,48px)}98.05%{transform:translate(96px,-16px)}}.s.s1{transform:translate(16px,-16px);animation-name:s1}@keyframes s2{0%,99.67%{transform:translate(32px,-16px)}0.65%{transform:translate(0px,-16px)}0.98%{transform:translate(0px,0px)}8.47%{transform:translate(368px,0px)}9.12%{transform:translate(368px,32px)}9.45%{transform:translate(384px,32px)}10.1%{transform:translate(384px,64px)}10.42%{transform:translate(368px,64px)}11.07%{transform:translate(368px,96px)}14.01%{transform:translate(512px,96px)}15.31%{transform:translate(512px,32px)}16.29%{transform:translate(464px,32px)}16.61%{transform:translate(464px,16px)}17.59%{transform:translate(416px,16px)}17.92%{transform:translate(416px,0px)}18.24%{transform:translate(400px,0px)}18.57%{transform:translate(400px,16px)}19.54%{transform:translate(448px,16px)}20.2%{transform:translate(448px,48px)}25.08%{transform:translate(688px,48px)}25.41%{transform:translate(688px,32px)}25.73%{transform:translate(672px,32px)}26.38%{transform:translate(672px,0px)}28.99%{transform:translate(800px,0px)}29.32%{transform:translate(800px,-16px)}29.97%{transform:translate(768px,-16px)}30.94%{transform:translate(768px,32px)}31.6%{transform:translate(736px,32px)}32.57%{transform:translate(736px,80px)}33.55%{transform:translate(688px,80px)}33.88%{transform:translate(688px,64px)}35.18%{transform:translate(752px,64px)}35.5%{transform:translate(752px,80px)}36.48%,39.09%{transform:translate(800px,80px)}37.13%,39.74%{transform:translate(800px,112px)}37.79%{transform:translate(768px,112px)}38.44%,48.86%{transform:translate(768px,80px)}40.72%{transform:translate(848px,112px)}42.67%{transform:translate(848px,16px)}43.32%,44.63%{transform:translate(816px,16px)}43.65%{transform:translate(816px,32px)}43.97%,74.59%{transform:translate(832px,32px)}44.3%{transform:translate(832px,16px)}46.25%,47.56%{transform:translate(816px,96px)}46.58%{transform:translate(832px,96px)}46.91%{transform:translate(832px,112px)}47.23%{transform:translate(816px,112px)}48.21%{transform:translate(784px,96px)}48.53%{transform:translate(784px,80px)}49.19%{transform:translate(768px,64px)}50.16%{transform:translate(720px,64px)}50.81%{transform:translate(720px,96px)}51.14%{transform:translate(704px,96px)}52.77%{transform:translate(704px,16px)}53.09%{transform:translate(688px,16px)}53.42%{transform:translate(688px,0px)}56.35%{transform:translate(832px,0px)}56.68%{transform:translate(832px,-16px)}64.5%{transform:translate(448px,-16px)}66.12%{transform:translate(448px,64px)}66.45%{transform:translate(464px,64px)}66.78%{transform:translate(464px,48px)}73.62%,75.57%{transform:translate(800px,48px)}73.94%,79.15%{transform:translate(800px,32px)}74.92%{transform:translate(832px,48px)}75.9%{transform:translate(800px,64px)}76.22%{transform:translate(816px,64px)}77.52%{transform:translate(816px,0px)}78.18%{transform:translate(784px,0px)}78.5%{transform:translate(784px,16px)}78.83%{transform:translate(800px,16px)}79.48%{transform:translate(784px,32px)}80.13%{transform:translate(784px,64px)}81.11%{transform:translate(832px,64px)}81.43%{transform:translate(832px,80px)}94.46%{transform:translate(192px,80px)}95.11%{transform:translate(192px,48px)}97.07%{transform:translate(96px,48px)}98.37%{transform:translate(96px,-16px)}}.s.s2{transform:translate(32px,-16px);animation-name:s2}@keyframes s3{0%,99.67%{transform:translate(48px,-16px)}0.98%{transform:translate(0px,-16px)}1.3%{transform:translate(0px,0px)}8.79%{transform:translate(368px,0px)}9.45%{transform:translate(368px,32px)}9.77%{transform:translate(384px,32px)}10.42%{transform:translate(384px,64px)}10.75%{transform:translate(368px,64px)}11.4%{transform:translate(368px,96px)}14.33%{transform:translate(512px,96px)}15.64%{transform:translate(512px,32px)}16.61%{transform:translate(464px,32px)}16.94%{transform:translate(464px,16px)}17.92%{transform:translate(416px,16px)}18.24%{transform:translate(416px,0px)}18.57%{transform:translate(400px,0px)}18.89%{transform:translate(400px,16px)}19.87%{transform:translate(448px,16px)}20.52%{transform:translate(448px,48px)}25.41%{transform:translate(688px,48px)}25.73%{transform:translate(688px,32px)}26.06%{transform:translate(672px,32px)}26.71%{transform:translate(672px,0px)}29.32%{transform:translate(800px,0px)}29.64%{transform:translate(800px,-16px)}30.29%{transform:translate(768px,-16px)}31.27%{transform:translate(768px,32px)}31.92%{transform:translate(736px,32px)}32.9%{transform:translate(736px,80px)}33.88%{transform:translate(688px,80px)}34.2%{transform:translate(688px,64px)}35.5%{transform:translate(752px,64px)}35.83%{transform:translate(752px,80px)}36.81%,39.41%{transform:translate(800px,80px)}37.46%,40.07%{transform:translate(800px,112px)}38.11%{transform:translate(768px,112px)}38.76%,49.19%{transform:translate(768px,80px)}41.04%{transform:translate(848px,112px)}43%{transform:translate(848px,16px)}43.65%,44.95%{transform:translate(816px,16px)}43.97%{transform:translate(816px,32px)}44.3%,74.92%{transform:translate(832px,32px)}44.63%{transform:translate(832px,16px)}46.58%,47.88%{transform:translate(816px,96px)}46.91%{transform:translate(832px,96px)}47.23%{transform:translate(832px,112px)}47.56%{transform:translate(816px,112px)}48.53%{transform:translate(784px,96px)}48.86%{transform:translate(784px,80px)}49.51%{transform:translate(768px,64px)}50.49%{transform:translate(720px,64px)}51.14%{transform:translate(720px,96px)}51.47%{transform:translate(704px,96px)}53.09%{transform:translate(704px,16px)}53.42%{transform:translate(688px,16px)}53.75%{transform:translate(688px,0px)}56.68%{transform:translate(832px,0px)}57%{transform:translate(832px,-16px)}64.82%{transform:translate(448px,-16px)}66.45%{transform:translate(448px,64px)}66.78%{transform:translate(464px,64px)}67.1%{transform:translate(464px,48px)}73.94%,75.9%{transform:translate(800px,48px)}74.27%,79.48%{transform:translate(800px,32px)}75.24%{transform:translate(832px,48px)}76.22%{transform:translate(800px,64px)}76.55%{transform:translate(816px,64px)}77.85%{transform:translate(816px,0px)}78.5%{transform:translate(784px,0px)}78.83%{transform:translate(784px,16px)}79.15%{transform:translate(800px,16px)}79.8%{transform:translate(784px,32px)}80.46%{transform:translate(784px,64px)}81.43%{transform:translate(832px,64px)}81.76%{transform:translate(832px,80px)}94.79%{transform:translate(192px,80px)}95.44%{transform:translate(192px,48px)}97.39%{transform:translate(96px,48px)}98.7%{transform:translate(96px,-16px)}}.s.s3{transform:translate(48px,-16px);animation-name:s3}</style><rect class="c" x="2" y="2" rx="2" ry="2"/><rect class="c" x="2" y="18" rx="2" ry="2"/><rect class="c" x="2" y="34" rx="2" ry="2"/><rect class="c" x="2" y="50" rx="2" ry="2"/><rect class="c" x="2" y="66" rx="2" ry="2"/><rect class="c" x="2" y="82" rx="2" ry="2"/><rect class="c" x="2" y="98" rx="2" ry="2"/><rect class="c" x="18" y="2" rx="2" ry="2"/><rect class="c" x="18" y="18" rx="2" ry="2"/><rect class="c" x="18" y="34" rx="2" ry="2"/><rect class="c" x="18" y="50" rx="2" ry="2"/><rect class="c" x="18" y="66" rx="2" ry="2"/><rect class="c" x="18" y="82" rx="2" ry="2"/><rect class="c" x="18" y="98" rx="2" ry="2"/><rect class="c" x="34" y="2" rx="2" ry="2"/><rect class="c" x="34" y="18" rx="2" ry="2"/><rect class="c" x="34" y="34" rx="2" ry="2"/><rect class="c" x="34" y="50" rx="2" ry="2"/><rect class="c" x="34" y="66" rx="2" ry="2"/><rect class="c" x="34" y="82" rx="2" ry="2"/><rect class="c" x="34" y="98" rx="2" ry="2"/><rect class="c" x="50" y="2" rx="2" ry="2"/><rect class="c" x="50" y="18" rx="2" ry="2"/><rect class="c" x="50" y="34" rx="2" ry="2"/><rect class="c" x="50" y="50" rx="2" ry="2"/><rect class="c" x="50" y="66" rx="2" ry="2"/><rect class="c" x="50" y="82" rx="2" ry="2"/><rect class="c" x="50" y="98" rx="2" ry="2"/><rect class="c" x="66" y="2" rx="2" ry="2"/><rect class="c" x="66" y="18" rx="2" ry="2"/><rect class="c" x="66" y="34" rx="2" ry="2"/><rect class="c" x="66" y="50" rx="2" ry="2"/><rect class="c" x="66" y="66" rx="2" ry="2"/><rect class="c" x="66" y="82" rx="2" ry="2"/><rect class="c" x="66" y="98" rx="2" ry="2"/><rect class="c" x="82" y="2" rx="2" ry="2"/><rect class="c" x="82" y="18" rx="2" ry="2"/><rect class="c" x="82" y="34" rx="2" ry="2"/><rect class="c" x="82" y="50" rx="2" ry="2"/><rect class="c" x="82" y="66" rx="2" ry="2"/><rect class="c" x="82" y="82" rx="2" ry="2"/><rect class="c" x="82" y="98" rx="2" ry="2"/><rect class="c" x="98" y="2" rx="2" ry="2"/><rect class="c" x="98" y="18" rx="2" ry="2"/><rect class="c" x="98" y="34" rx="2" ry="2"/><rect class="c" x="98" y="50" rx="2" ry="2"/><rect class="c" x="98" y="66" rx="2" ry="2"/><rect class="c" x="98" y="82" rx="2" ry="2"/><rect class="c" x="98" y="98" rx="2" ry="2"/><rect class="c" x="114" y="2" rx="2" ry="2"/><rect class="c" x="114" y="18" rx="2" ry="2"/><rect class="c" x="114" y="34" rx="2" ry="2"/><rect class="c" x="114" y="50" rx="2" ry="2"/><rect class="c" x="114" y="66" rx="2" ry="2"/><rect class="c" x="114" y="82" rx="2" ry="2"/><rect class="c" x="114" y="98" rx="2" ry="2"/><rect class="c" x="130" y="2" rx="2" ry="2"/><rect class="c" x="130" y="18" rx="2" ry="2"/><rect class="c" x="130" y="34" rx="2" ry="2"/><rect class="c" x="130" y="50" rx="2" ry="2"/><rect class="c" x="130" y="66" rx="2" ry="2"/><rect class="c" x="130" y="82" rx="2" ry="2"/><rect class="c" x="130" y="98" rx="2" ry="2"/><rect class="c" x="146" y="2" rx="2" ry="2"/><rect class="c" x="146" y="18" rx="2" ry="2"/><rect class="c" x="146" y="34" rx="2" ry="2"/><rect class="c" x="146" y="50" rx="2" ry="2"/><rect class="c" x="146" y="66" rx="2" ry="2"/><rect class="c" x="146" y="82" rx="2" ry="2"/><rect class="c" x="146" y="98" rx="2" ry="2"/><rect class="c" x="162" y="2" rx="2" ry="2"/><rect class="c" x="162" y="18" rx="2" ry="2"/><rect class="c" x="162" y="34" rx="2" ry="2"/><rect class="c" x="162" y="50" rx="2" ry="2"/><rect class="c" x="162" y="66" rx="2" ry="2"/><rect class="c" x="162" y="82" rx="2" ry="2"/><rect class="c" x="162" y="98" rx="2" ry="2"/><rect class="c" x="178" y="2" rx="2" ry="2"/><rect class="c" x="178" y="18" rx="2" ry="2"/><rect class="c" x="178" y="34" rx="2" ry="2"/><rect class="c" x="178" y="50" rx="2" ry="2"/><rect class="c" x="178" y="66" rx="2" ry="2"/><rect class="c" x="178" y="82" rx="2" ry="2"/><rect class="c" x="178" y="98" rx="2" ry="2"/><rect class="c" x="194" y="2" rx="2" ry="2"/><rect class="c" x="194" y="18" rx="2" ry="2"/><rect class="c" x="194" y="34" rx="2" ry="2"/><rect class="c" x="194" y="50" rx="2" ry="2"/><rect class="c" x="194" y="66" rx="2" ry="2"/><rect class="c" x="194" y="82" rx="2" ry="2"/><rect class="c" x="194" y="98" rx="2" ry="2"/><rect class="c" x="210" y="2" rx="2" ry="2"/><rect class="c" x="210" y="18" rx="2" ry="2"/><rect class="c" x="210" y="34" rx="2" ry="2"/><rect class="c" x="210" y="50" rx="2" ry="2"/><rect class="c" x="210" y="66" rx="2" ry="2"/><rect class="c" x="210" y="82" rx="2" ry="2"/><rect class="c" x="210" y="98" rx="2" ry="2"/><rect class="c" x="226" y="2" rx="2" ry="2"/><rect class="c" x="226" y="18" rx="2" ry="2"/><rect class="c" x="226" y="34" rx="2" ry="2"/><rect class="c" x="226" y="50" rx="2" ry="2"/><rect class="c" x="226" y="66" rx="2" ry="2"/><rect class="c" x="226" y="82" rx="2" ry="2"/><rect class="c" x="226" y="98" rx="2" ry="2"/><rect class="c" x="242" y="2" rx="2" ry="2"/><rect class="c" x="242" y="18" rx="2" ry="2"/><rect class="c" x="242" y="34" rx="2" ry="2"/><rect class="c" x="242" y="50" rx="2" ry="2"/><rect class="c" x="242" y="66" rx="2" ry="2"/><rect class="c" x="242" y="82" rx="2" ry="2"/><rect class="c" x="242" y="98" rx="2" ry="2"/><rect class="c" x="258" y="2" rx="2" ry="2"/><rect class="c" x="258" y="18" rx="2" ry="2"/><rect class="c" x="258" y="34" rx="2" ry="2"/><rect class="c" x="258" y="50" rx="2" ry="2"/><rect class="c" x="258" y="66" rx="2" ry="2"/><rect class="c" x="258" y="82" rx="2" ry="2"/><rect class="c" x="258" y="98" rx="2" ry="2"/><rect class="c" x="274" y="2" rx="2" ry="2"/><rect class="c" x="274" y="18" rx="2" ry="2"/><rect class="c" x="274" y="34" rx="2" ry="2"/><rect class="c" x="274" y="50" rx="2" ry="2"/><rect class="c" x="274" y="66" rx="2" ry="2"/><rect class="c" x="274" y="82" rx="2" ry="2"/><rect class="c" x="274" y="98" rx="2" ry="2"/><rect class="c" x="290" y="2" rx="2" ry="2"/><rect class="c" x="290" y="18" rx="2" ry="2"/><rect class="c" x="290" y="34" rx="2" ry="2"/><rect class="c" x="290" y="50" rx="2" ry="2"/><rect class="c" x="290" y="66" rx="2" ry="2"/><rect class="c" x="290" y="82" rx="2" ry="2"/><rect class="c" x="290" y="98" rx="2" ry="2"/><rect class="c" x="306" y="2" rx="2" ry="2"/><rect class="c" x="306" y="18" rx="2" ry="2"/><rect class="c" x="306" y="34" rx="2" ry="2"/><rect class="c" x="306" y="50" rx="2" ry="2"/><rect class="c" x="306" y="66" rx="2" ry="2"/><rect class="c" x="306" y="82" rx="2" ry="2"/><rect class="c" x="306" y="98" rx="2" ry="2"/><rect class="c" x="322" y="2" rx="2" ry="2"/><rect class="c" x="322" y="18" rx="2" ry="2"/><rect class="c" x="322" y="34" rx="2" ry="2"/><rect class="c" x="322" y="50" rx="2" ry="2"/><rect class="c" x="322" y="66" rx="2" ry="2"/><rect class="c" x="322" y="82" rx="2" ry="2"/><rect class="c" x="322" y="98" rx="2" ry="2"/><rect class="c" x="338" y="2" rx="2" ry="2"/><rect class="c" x="338" y="18" rx="2" ry="2"/><rect class="c" x="338" y="34" rx="2" ry="2"/><rect class="c" x="338" y="50" rx="2" ry="2"/><rect class="c" x="338" y="66" rx="2" ry="2"/><rect class="c" x="338" y="82" rx="2" ry="2"/><rect class="c" x="338" y="98" rx="2" ry="2"/><rect class="c c0" x="354" y="2" rx="2" ry="2"/><rect class="c" x="354" y="18" rx="2" ry="2"/><rect class="c" x="354" y="34" rx="2" ry="2"/><rect class="c" x="354" y="50" rx="2" ry="2"/><rect class="c" x="354" y="66" rx="2" ry="2"/><rect class="c" x="354" y="82" rx="2" ry="2"/><rect class="c" x="354" y="98" rx="2" ry="2"/><rect class="c c1" x="370" y="2" rx="2" ry="2"/><rect class="c c2" x="370" y="18" rx="2" ry="2"/><rect class="c c3" x="370" y="34" rx="2" ry="2"/><rect class="c" x="370" y="50" rx="2" ry="2"/><rect class="c" x="370" y="66" rx="2" ry="2"/><rect class="c c4" x="370" y="82" rx="2" ry="2"/><rect class="c c5" x="370" y="98" rx="2" ry="2"/><rect class="c" x="386" y="2" rx="2" ry="2"/><rect class="c" x="386" y="18" rx="2" ry="2"/><rect class="c" x="386" y="34" rx="2" ry="2"/><rect class="c" x="386" y="50" rx="2" ry="2"/><rect class="c c6" x="386" y="66" rx="2" ry="2"/><rect class="c" x="386" y="82" rx="2" ry="2"/><rect class="c c7" x="386" y="98" rx="2" ry="2"/><rect class="c c8" x="402" y="2" rx="2" ry="2"/><rect class="c" x="402" y="18" rx="2" ry="2"/><rect class="c" x="402" y="34" rx="2" ry="2"/><rect class="c" x="402" y="50" rx="2" ry="2"/><rect class="c" x="402" y="66" rx="2" ry="2"/><rect class="c" x="402" y="82" rx="2" ry="2"/><rect class="c" x="402" y="98" rx="2" ry="2"/><rect class="c" x="418" y="2" rx="2" ry="2"/><rect class="c c9" x="418" y="18" rx="2" ry="2"/><rect class="c" x="418" y="34" rx="2" ry="2"/><rect class="c" x="418" y="50" rx="2" ry="2"/><rect class="c" x="418" y="66" rx="2" ry="2"/><rect class="c" x="418" y="82" rx="2" ry="2"/><rect class="c" x="418" y="98" rx="2" ry="2"/><rect class="c" x="434" y="2" rx="2" ry="2"/><rect class="c ca" x="434" y="18" rx="2" ry="2"/><rect class="c" x="434" y="34" rx="2" ry="2"/><rect class="c" x="434" y="50" rx="2" ry="2"/><rect class="c" x="434" y="66" rx="2" ry="2"/><rect class="c" x="434" y="82" rx="2" ry="2"/><rect class="c" x="434" y="98" rx="2" ry="2"/><rect class="c" x="450" y="2" rx="2" ry="2"/><rect class="c" x="450" y="18" rx="2" ry="2"/><rect class="c" x="450" y="34" rx="2" ry="2"/><rect class="c cb" x="450" y="50" rx="2" ry="2"/><rect class="c cc" x="450" y="66" rx="2" ry="2"/><rect class="c" x="450" y="82" rx="2" ry="2"/><rect class="c cd" x="450" y="98" rx="2" ry="2"/><rect class="c" x="466" y="2" rx="2" ry="2"/><rect class="c ce" x="466" y="18" rx="2" ry="2"/><rect class="c cf" x="466" y="34" rx="2" ry="2"/><rect class="c" x="466" y="50" rx="2" ry="2"/><rect class="c" x="466" y="66" rx="2" ry="2"/><rect class="c" x="466" y="82" rx="2" ry="2"/><rect class="c" x="466" y="98" rx="2" ry="2"/><rect class="c" x="482" y="2" rx="2" ry="2"/><rect class="c" x="482" y="18" rx="2" ry="2"/><rect class="c" x="482" y="34" rx="2" ry="2"/><rect class="c" x="482" y="50" rx="2" ry="2"/><rect class="c" x="482" y="66" rx="2" ry="2"/><rect class="c" x="482" y="82" rx="2" ry="2"/><rect class="c" x="482" y="98" rx="2" ry="2"/><rect class="c" x="498" y="2" rx="2" ry="2"/><rect class="c" x="498" y="18" rx="2" ry="2"/><rect class="c" x="498" y="34" rx="2" ry="2"/><rect class="c" x="498" y="50" rx="2" ry="2"/><rect class="c" x="498" y="66" rx="2" ry="2"/><rect class="c" x="498" y="82" rx="2" ry="2"/><rect class="c cg" x="498" y="98" rx="2" ry="2"/><rect class="c" x="514" y="2" rx="2" ry="2"/><rect class="c" x="514" y="18" rx="2" ry="2"/><rect class="c" x="514" y="34" rx="2" ry="2"/><rect class="c" x="514" y="50" rx="2" ry="2"/><rect class="c ch" x="514" y="66" rx="2" ry="2"/><rect class="c" x="514" y="82" rx="2" ry="2"/><rect class="c" x="514" y="98" rx="2" ry="2"/><rect class="c" x="530" y="2" rx="2" ry="2"/><rect class="c" x="530" y="18" rx="2" ry="2"/><rect class="c" x="530" y="34" rx="2" ry="2"/><rect class="c" x="530" y="50" rx="2" ry="2"/><rect class="c" x="530" y="66" rx="2" ry="2"/><rect class="c" x="530" y="82" rx="2" ry="2"/><rect class="c" x="530" y="98" rx="2" ry="2"/><rect class="c" x="546" y="2" rx="2" ry="2"/><rect class="c" x="546" y="18" rx="2" ry="2"/><rect class="c" x="546" y="34" rx="2" ry="2"/><rect class="c" x="546" y="50" rx="2" ry="2"/><rect class="c" x="546" y="66" rx="2" ry="2"/><rect class="c" x="546" y="82" rx="2" ry="2"/><rect class="c" x="546" y="98" rx="2" ry="2"/><rect class="c" x="562" y="2" rx="2" ry="2"/><rect class="c" x="562" y="18" rx="2" ry="2"/><rect class="c" x="562" y="34" rx="2" ry="2"/><rect class="c" x="562" y="50" rx="2" ry="2"/><rect class="c" x="562" y="66" rx="2" ry="2"/><rect class="c" x="562" y="82" rx="2" ry="2"/><rect class="c" x="562" y="98" rx="2" ry="2"/><rect class="c" x="578" y="2" rx="2" ry="2"/><rect class="c" x="578" y="18" rx="2" ry="2"/><rect class="c" x="578" y="34" rx="2" ry="2"/><rect class="c" x="578" y="50" rx="2" ry="2"/><rect class="c" x="578" y="66" rx="2" ry="2"/><rect class="c" x="578" y="82" rx="2" ry="2"/><rect class="c" x="578" y="98" rx="2" ry="2"/><rect class="c" x="594" y="2" rx="2" ry="2"/><rect class="c" x="594" y="18" rx="2" ry="2"/><rect class="c" x="594" y="34" rx="2" ry="2"/><rect class="c" x="594" y="50" rx="2" ry="2"/><rect class="c" x="594" y="66" rx="2" ry="2"/><rect class="c" x="594" y="82" rx="2" ry="2"/><rect class="c" x="594" y="98" rx="2" ry="2"/><rect class="c" x="610" y="2" rx="2" ry="2"/><rect class="c" x="610" y="18" rx="2" ry="2"/><rect class="c" x="610" y="34" rx="2" ry="2"/><rect class="c" x="610" y="50" rx="2" ry="2"/><rect class="c" x="610" y="66" rx="2" ry="2"/><rect class="c" x="610" y="82" rx="2" ry="2"/><rect class="c" x="610" y="98" rx="2" ry="2"/><rect class="c" x="626" y="2" rx="2" ry="2"/><rect class="c" x="626" y="18" rx="2" ry="2"/><rect class="c" x="626" y="34" rx="2" ry="2"/><rect class="c" x="626" y="50" rx="2" ry="2"/><rect class="c" x="626" y="66" rx="2" ry="2"/><rect class="c" x="626" y="82" rx="2" ry="2"/><rect class="c" x="626" y="98" rx="2" ry="2"/><rect class="c" x="642" y="2" rx="2" ry="2"/><rect class="c" x="642" y="18" rx="2" ry="2"/><rect class="c" x="642" y="34" rx="2" ry="2"/><rect class="c" x="642" y="50" rx="2" ry="2"/><rect class="c" x="642" y="66" rx="2" ry="2"/><rect class="c" x="642" y="82" rx="2" ry="2"/><rect class="c" x="642" y="98" rx="2" ry="2"/><rect class="c" x="658" y="2" rx="2" ry="2"/><rect class="c" x="658" y="18" rx="2" ry="2"/><rect class="c" x="658" y="34" rx="2" ry="2"/><rect class="c" x="658" y="50" rx="2" ry="2"/><rect class="c" x="658" y="66" rx="2" ry="2"/><rect class="c" x="658" y="82" rx="2" ry="2"/><rect class="c" x="658" y="98" rx="2" ry="2"/><rect class="c" x="674" y="2" rx="2" ry="2"/><rect class="c ci" x="674" y="18" rx="2" ry="2"/><rect class="c" x="674" y="34" rx="2" ry="2"/><rect class="c" x="674" y="50" rx="2" ry="2"/><rect class="c" x="674" y="66" rx="2" ry="2"/><rect class="c" x="674" y="82" rx="2" ry="2"/><rect class="c" x="674" y="98" rx="2" ry="2"/><rect class="c" x="690" y="2" rx="2" ry="2"/><rect class="c cj" x="690" y="18" rx="2" ry="2"/><rect class="c ck" x="690" y="34" rx="2" ry="2"/><rect class="c cl" x="690" y="50" rx="2" ry="2"/><rect class="c cm" x="690" y="66" rx="2" ry="2"/><rect class="c cn" x="690" y="82" rx="2" ry="2"/><rect class="c" x="690" y="98" rx="2" ry="2"/><rect class="c" x="706" y="2" rx="2" ry="2"/><rect class="c" x="706" y="18" rx="2" ry="2"/><rect class="c" x="706" y="34" rx="2" ry="2"/><rect class="c" x="706" y="50" rx="2" ry="2"/><rect class="c" x="706" y="66" rx="2" ry="2"/><rect class="c" x="706" y="82" rx="2" ry="2"/><rect class="c" x="706" y="98" rx="2" ry="2"/><rect class="c co" x="722" y="2" rx="2" ry="2"/><rect class="c" x="722" y="18" rx="2" ry="2"/><rect class="c" x="722" y="34" rx="2" ry="2"/><rect class="c" x="722" y="50" rx="2" ry="2"/><rect class="c" x="722" y="66" rx="2" ry="2"/><rect class="c cp" x="722" y="82" rx="2" ry="2"/><rect class="c cq" x="722" y="98" rx="2" ry="2"/><rect class="c" x="738" y="2" rx="2" ry="2"/><rect class="c" x="738" y="18" rx="2" ry="2"/><rect class="c" x="738" y="34" rx="2" ry="2"/><rect class="c" x="738" y="50" rx="2" ry="2"/><rect class="c" x="738" y="66" rx="2" ry="2"/><rect class="c cr" x="738" y="82" rx="2" ry="2"/><rect class="c" x="738" y="98" rx="2" ry="2"/><rect class="c" x="754" y="2" rx="2" ry="2"/><rect class="c" x="754" y="18" rx="2" ry="2"/><rect class="c" x="754" y="34" rx="2" ry="2"/><rect class="c" x="754" y="50" rx="2" ry="2"/><rect class="c" x="754" y="66" rx="2" ry="2"/><rect class="c" x="754" y="82" rx="2" ry="2"/><rect class="c" x="754" y="98" rx="2" ry="2"/><rect class="c" x="770" y="2" rx="2" ry="2"/><rect class="c cs" x="770" y="18" rx="2" ry="2"/><rect class="c ct" x="770" y="34" rx="2" ry="2"/><rect class="c" x="770" y="50" rx="2" ry="2"/><rect class="c cu" x="770" y="66" rx="2" ry="2"/><rect class="c cv" x="770" y="82" rx="2" ry="2"/><rect class="c cw" x="770" y="98" rx="2" ry="2"/><rect class="c cx" x="786" y="2" rx="2" ry="2"/><rect class="c cy" x="786" y="18" rx="2" ry="2"/><rect class="c cz" x="786" y="34" rx="2" ry="2"/><rect class="c c10" x="786" y="50" rx="2" ry="2"/><rect class="c c11" x="786" y="66" rx="2" ry="2"/><rect class="c c12" x="786" y="82" rx="2" ry="2"/><rect class="c c13" x="786" y="98" rx="2" ry="2"/><rect class="c c14" x="802" y="2" rx="2" ry="2"/><rect class="c c15" x="802" y="18" rx="2" ry="2"/><rect class="c c16" x="802" y="34" rx="2" ry="2"/><rect class="c c17" x="802" y="50" rx="2" ry="2"/><rect class="c c18" x="802" y="66" rx="2" ry="2"/><rect class="c c19" x="802" y="82" rx="2" ry="2"/><rect class="c c1a" x="802" y="98" rx="2" ry="2"/><rect class="c c1b" x="818" y="2" rx="2" ry="2"/><rect class="c c1c" x="818" y="18" rx="2" ry="2"/><rect class="c c1d" x="818" y="34" rx="2" ry="2"/><rect class="c c1e" x="818" y="50" rx="2" ry="2"/><rect class="c c1f" x="818" y="66" rx="2" ry="2"/><rect class="c c1g" x="818" y="82" rx="2" ry="2"/><rect class="c c1h" x="818" y="98" rx="2" ry="2"/><rect class="c c1i" x="834" y="2" rx="2" ry="2"/><rect class="c" x="834" y="18" rx="2" ry="2"/><rect class="c c1j" x="834" y="34" rx="2" ry="2"/><rect class="c c1k" x="834" y="50" rx="2" ry="2"/><rect class="c c1l" x="834" y="66" rx="2" ry="2"/><rect class="c c1m" x="834" y="82" rx="2" ry="2"/><rect class="c c1n" x="834" y="98" rx="2" ry="2"/><rect class="u u0" height="12" width="509.4" x="0.0" y="144"/><rect class="u u1" height="12" width="28.9" x="508.8" y="144"/><rect class="u u2" height="12" width="14.7" x="537.1" y="144"/><rect class="u u3" height="12" width="141.9" x="551.2" y="144"/><rect class="u u4" height="12" width="14.7" x="692.5" y="144"/><rect class="u u5" height="12" width="14.7" x="706.7" y="144"/><rect class="u u6" height="12" width="14.7" x="720.8" y="144"/><rect class="u u7" height="12" width="43.0" x="734.9" y="144"/><rect class="u u8" height="12" width="71.3" x="777.3" y="144"/><rect class="s s0" x="0.8" y="0.8" width="14.4" height="14.4" rx="4.5" ry="4.5"/><rect class="s s1" x="1.8" y="1.8" width="12.3" height="12.3" rx="4.1" ry="4.1"/><rect class="s s2" x="2.6" y="2.6" width="10.8" height="10.8" rx="3.6" ry="3.6"/><rect class="s s3" x="3.0" y="3.0" width="9.9" height="9.9" rx="3.3" ry="3.3"/></svg>
